####
#
# OBJ File Generated by Meshlab
#
####
# Object pack_body.obj
#
# Vertices: 48
# Faces: 88
#
####
mtllib ./spot_accessories.mtl

vn -0.785301 -2.931202 -3.665120
v -0.315076 -0.030985 -0.013250
vn 0.784406 -2.931718 -3.664463
v 0.345076 -0.031028 -0.013250
vn -0.788259 2.929490 -3.667296
v -0.315076 0.030965 -0.013250
vn 0.787209 2.930099 -3.666523
v 0.345076 0.031028 -0.013250
vn -1.457778 -3.135092 3.573860
v -0.315076 -0.030985 0.047555
vn 1.456022 -3.135570 3.573405
v 0.345076 -0.031028 0.047555
vn -1.461607 3.132877 3.575918
v -0.315076 0.030965 0.047555
vn 1.459648 3.133475 3.575353
v 0.345076 0.031028 0.047555
vn -0.785300 -2.931202 -2.618066
v -0.182158 -0.107713 -0.013250
vn 0.784406 -2.931718 -2.618722
v 0.212029 -0.107713 -0.013250
vn 0.787209 2.930099 -2.616663
v 0.212029 0.108079 -0.013250
vn -0.788259 2.929490 -2.615890
v -0.182158 0.108079 -0.013250
vn -0.951370 -2.727312 2.595346
v -0.182158 -0.107713 0.084369
vn 0.950586 -2.727866 2.596010
v 0.212029 -0.107713 0.084369
vn 0.952565 2.726723 2.594061
v 0.212029 0.108079 0.084369
vn -0.953458 2.726104 2.593288
v -0.182158 0.108079 0.084369
vn 1.570796 -1.570796 -1.570796
v 0.364935 -0.031028 -0.013250
vn 1.570796 1.570796 -1.570796
v 0.364935 0.031028 -0.013250
vn 1.570796 -1.570796 1.570796
v 0.364935 -0.031028 0.047555
vn 1.570796 1.570796 1.570796
v 0.364935 0.031028 0.047555
vn -1.570796 -1.570796 -1.570796
v -0.334935 -0.030985 -0.013250
vn -1.570796 1.570796 -1.570797
v -0.334935 0.030965 -0.013250
vn -1.570796 -1.570796 1.570797
v -0.334935 -0.030985 0.047555
vn -1.570796 1.570796 1.570796
v -0.334935 0.030965 0.047555
vn -0.785301 -2.931202 -3.665120
v -0.315076 -0.030985 -0.013250
vn 0.784406 -2.931718 -3.664463
v 0.345076 -0.031028 -0.013250
vn -0.788259 2.929490 -3.667296
v -0.315076 0.030965 -0.013250
vn 0.787209 2.930099 -3.666523
v 0.345076 0.031028 -0.013250
vn -1.457778 -3.135092 3.573860
v -0.315076 -0.030985 0.047555
vn 1.456022 -3.135570 3.573405
v 0.345076 -0.031028 0.047555
vn -1.461607 3.132877 3.575918
v -0.315076 0.030965 0.047555
vn 1.459648 3.133475 3.575353
v 0.345076 0.031028 0.047555
vn -0.785300 -2.931202 -2.618066
v -0.182158 -0.107713 -0.013250
vn 0.784406 -2.931718 -2.618722
v 0.212029 -0.107713 -0.013250
vn 0.787209 2.930099 -2.616663
v 0.212029 0.108079 -0.013250
vn -0.788259 2.929490 -2.615890
v -0.182158 0.108079 -0.013250
vn -0.951370 -2.727312 2.595346
v -0.182158 -0.107713 0.084369
vn 0.950586 -2.727866 2.596010
v 0.212029 -0.107713 0.084369
vn 0.952565 2.726723 2.594061
v 0.212029 0.108079 0.084369
vn -0.953458 2.726104 2.593288
v -0.182158 0.108079 0.084369
vn 1.570796 -1.570796 -1.570796
v 0.364935 -0.031028 -0.013250
vn 1.570796 1.570796 -1.570796
v 0.364935 0.031028 -0.013250
vn 1.570796 -1.570796 1.570796
v 0.364935 -0.031028 0.047555
vn 1.570796 1.570796 1.570796
v 0.364935 0.031028 0.047555
vn -1.570796 -1.570796 -1.570796
v -0.334935 -0.030985 -0.013250
vn -1.570796 1.570796 -1.570797
v -0.334935 0.030965 -0.013250
vn -1.570796 -1.570796 1.570797
v -0.334935 -0.030985 0.047555
vn -1.570796 1.570796 1.570796
v -0.334935 0.030965 0.047555
# 48 vertices, 0 vertices normals


usemtl material_0
vt 0.125000 0.062500
f 10/1/10 4/1/4 2/1/2
f 14/1/14 8/1/8 15/1/15
vt 0.062500 0.062500
f 12/2/12 7/2/7 16/2/16
f 10/1/10 6/1/6 14/1/14
f 6/1/6 20/1/20 8/1/8
f 3/2/3 24/2/24 7/2/7
f 9/2/9 5/2/5 1/2/1
f 10/1/10 13/1/13 9/1/9
f 11/1/11 8/1/8 4/1/4
f 12/2/12 15/2/15 11/2/11
f 13/2/13 7/2/7 5/2/5
f 14/1/14 16/1/16 13/1/13
f 3/2/3 9/2/9 1/2/1
f 12/1/12 10/1/10 9/1/9
f 18/1/18 19/1/19 17/1/17
f 4/1/4 17/1/17 2/1/2
f 8/1/8 18/1/18 4/1/4
f 2/1/2 19/1/19 6/1/6
f 21/2/21 24/2/24 22/2/22
f 7/2/7 23/2/23 5/2/5
f 1/2/1 22/2/22 3/2/3
f 5/2/5 21/2/21 1/2/1
f 10/1/10 11/1/11 4/1/4
f 14/1/14 6/1/6 8/1/8
f 12/2/12 3/2/3 7/2/7
f 10/1/10 2/1/2 6/1/6
f 6/1/6 19/1/19 20/1/20
f 3/2/3 22/2/22 24/2/24
f 9/2/9 13/2/13 5/2/5
f 10/1/10 14/1/14 13/1/13
f 11/1/11 15/1/15 8/1/8
f 12/2/12 16/2/16 15/2/15
f 13/2/13 16/2/16 7/2/7
f 14/1/14 15/1/15 16/1/16
f 3/2/3 12/2/12 9/2/9
f 12/1/12 11/1/11 10/1/10
f 18/1/18 20/1/20 19/1/19
f 4/1/4 18/1/18 17/1/17
f 8/1/8 20/1/20 18/1/18
f 2/1/2 17/1/17 19/1/19
f 21/2/21 23/2/23 24/2/24
f 7/2/7 24/2/24 23/2/23
f 1/2/1 21/2/21 22/2/22
f 5/2/5 23/2/23 21/2/21
f 34/1/34 28/1/28 26/1/26
f 38/1/38 32/1/32 39/1/39
f 36/2/36 31/2/31 40/2/40
f 34/1/34 30/1/30 38/1/38
f 30/1/30 44/1/44 32/1/32
f 27/2/27 48/2/48 31/2/31
f 33/2/33 29/2/29 25/2/25
f 34/1/34 37/1/37 33/1/33
f 35/1/35 32/1/32 28/1/28
f 36/2/36 39/2/39 35/2/35
f 37/2/37 31/2/31 29/2/29
f 38/1/38 40/1/40 37/1/37
f 27/2/27 33/2/33 25/2/25
f 36/1/36 34/1/34 33/1/33
f 42/1/42 43/1/43 41/1/41
f 28/1/28 41/1/41 26/1/26
f 32/1/32 42/1/42 28/1/28
f 26/1/26 43/1/43 30/1/30
f 45/2/45 48/2/48 46/2/46
f 31/2/31 47/2/47 29/2/29
f 25/2/25 46/2/46 27/2/27
f 29/2/29 45/2/45 25/2/25
f 34/1/34 35/1/35 28/1/28
f 38/1/38 30/1/30 32/1/32
f 36/2/36 27/2/27 31/2/31
f 34/1/34 26/1/26 30/1/30
f 30/1/30 43/1/43 44/1/44
f 27/2/27 46/2/46 48/2/48
f 33/2/33 37/2/37 29/2/29
f 34/1/34 38/1/38 37/1/37
f 35/1/35 39/1/39 32/1/32
f 36/2/36 40/2/40 39/2/39
f 37/2/37 40/2/40 31/2/31
f 38/1/38 39/1/39 40/1/40
f 27/2/27 36/2/36 33/2/33
f 36/1/36 35/1/35 34/1/34
f 42/1/42 44/1/44 43/1/43
f 28/1/28 42/1/42 41/1/41
f 32/1/32 44/1/44 42/1/42
f 26/1/26 41/1/41 43/1/43
f 45/2/45 47/2/47 48/2/48
f 31/2/31 48/2/48 47/2/47
f 25/2/25 45/2/45 46/2/46
f 29/2/29 47/2/47 45/2/45
# 88 faces, 2 coords texture

# End of File
